<?xml version="1.0" encoding="utf-8"?>
<svg xmlns="http://www.w3.org/2000/svg" width="192" height="64" viewBox="0 0 192 64" fill="none">
<path fill-rule="evenodd" clip-rule="evenodd" d="M46.4907 28.1423C49.7137 28.1423 51.3562 29.8158 52.2549 31.9851L49.2488 33.1318C48.8769 31.6442 47.9162 30.7455 46.3357 30.7455C44.0114 30.7455 42.9887 33.0078 42.9887 35.4561C42.9887 37.8734 43.9494 40.1357 46.3667 40.1357C48.0092 40.1357 48.753 39.175 49.2488 37.9044L52.3169 39.082C51.2013 41.1274 49.5587 42.7699 46.4287 42.7699C42.2449 42.7699 39.5797 39.8568 39.5797 35.4561C39.5487 31.0864 42.2139 28.1423 46.4907 28.1423ZM66.2318 42.398H63.0707V40.3217C62.234 41.7472 60.9014 42.7699 58.763 42.7699C56.1288 42.7699 53.9284 41.2204 53.9284 38.1213V28.5142H57.2445V37.3155C57.2445 39.299 58.4841 40.0737 59.7547 40.0737C61.3662 40.0737 62.9158 38.6482 62.9158 35.89V28.5451H66.2318V42.398ZM100.725 39.3609C99.6399 41.4373 97.7184 42.8009 94.8053 42.8009C90.5596 42.8009 87.9254 39.8568 87.9254 35.4561C87.9254 31.0864 90.6216 28.1733 94.6813 28.1733C99.144 28.1733 101.22 31.5513 101.22 35.3321V36.2619H91.3034C91.3963 38.3382 92.2951 40.3217 94.7743 40.3217C96.4788 40.3217 97.2846 39.4539 97.8424 38.2453L100.725 39.3609ZM91.3653 34.0305H97.8734C97.7804 31.8302 96.5098 30.5596 94.6504 30.5596C92.6979 30.5596 91.5513 32.0161 91.3653 34.0305ZM103.235 28.5142H106.427V30.6215C107.233 29.196 108.627 28.1423 110.797 28.1423C113.493 28.1423 115.724 29.6918 115.724 32.8219V42.398H112.377V33.5966C112.377 31.6132 111.075 30.8385 109.805 30.8385C108.131 30.8385 106.582 32.264 106.582 35.0222V42.367H103.235V28.5142ZM124.464 28.1423C127.687 28.1423 129.329 29.8158 130.228 31.9851L127.222 33.1318C126.85 31.6442 125.889 30.7455 124.309 30.7455C121.984 30.7455 120.962 33.0078 120.962 35.4561C120.962 37.8734 121.922 40.1357 124.34 40.1357C125.982 40.1357 126.726 39.175 127.222 37.9044L130.29 39.082C129.174 41.1274 127.532 42.7699 124.402 42.7699C120.218 42.7699 117.553 39.8568 117.553 35.4561C117.522 31.0864 120.156 28.1423 124.464 28.1423ZM152.2 24.7023C153.068 24.7023 153.781 25.1052 154.184 25.508L155.206 22.7499C154.401 22.254 153.099 21.9751 151.859 21.9751C149.473 21.9751 146.901 23.2767 146.901 27.1506V28.5451H141.23C141.23 28.5451 138.13 37.0056 137.635 38.6791H137.604C137.046 37.0056 133.947 28.5451 133.947 28.5451H130.538L135.992 42.46L133.699 48.2863H136.953L143.492 30.9934H146.932V42.429H150.248V30.9934H152.758L153.688 28.5451H150.248V27.1196C150.248 25.3841 151.054 24.7023 152.2 24.7023ZM163.078 40.6006C162.179 41.9022 160.847 42.7699 158.646 42.7699C155.857 42.7699 153.998 41.2514 153.998 38.8031C153.998 35.0842 158.274 33.9685 163.016 33.9685V33.1008C163.016 31.6442 162.21 30.6215 160.475 30.6215C158.708 30.6215 157.872 31.6132 157.841 32.7909L154.618 32.326C154.896 29.5988 157.531 28.1423 160.599 28.1423C163.946 28.1423 166.27 29.8468 166.27 33.1938V40.5076C166.27 41.3443 166.425 41.8712 166.58 42.398H163.357C163.233 42.1501 163.078 41.3753 163.078 40.6006ZM163.016 37.2846V36.1379C159.576 36.1379 157.283 36.7887 157.283 38.6172C157.283 39.7328 158.243 40.3217 159.576 40.3217C161.312 40.3217 163.016 39.206 163.016 37.2846ZM168.811 28.5142H172.158V42.398H168.811V28.5142ZM182.602 31.2723C182.23 31.0864 181.796 30.9934 181.394 30.9934C179.782 30.9934 178.016 32.388 178.016 35.3941V42.398H174.669V28.5142H177.799V30.7765C178.573 29.01 179.999 28.1423 181.889 28.1423C182.447 28.1423 183.098 28.2352 183.656 28.4522L182.602 31.2723ZM76.7067 31.2723C76.3348 31.0864 75.9009 30.9934 75.498 30.9934C73.8865 30.9934 72.12 32.388 72.12 35.3941V42.398H68.773V28.5142H71.9031V30.7765C72.6779 29.01 74.1035 28.1423 75.9939 28.1423C76.5517 28.1423 77.2025 28.2352 77.7604 28.4522L76.7067 31.2723ZM86.9646 31.2723C86.5928 31.0864 86.1589 30.9934 85.756 30.9934C84.1445 30.9934 82.378 32.388 82.378 35.3941V42.398H79.031V28.5142H82.1611V30.7765C82.9358 29.01 84.3614 28.1423 86.2519 28.1423C86.8097 28.1423 87.4605 28.2352 88.0183 28.4522L86.9646 31.2723Z" fill="#32323C"/>
<path d="M172.33 24.6313C172.92 23.6085 172.57 22.3007 171.547 21.7102C170.525 21.1197 169.217 21.4701 168.626 22.4929C168.036 23.5156 168.386 24.8234 169.409 25.4139C170.432 26.0045 171.739 25.6541 172.33 24.6313Z" fill="#32323C"/>
<path d="M18.196 60.0003C23.8271 60.0003 28.3919 55.4355 28.3919 49.8044C28.3919 44.1733 23.8271 39.6084 18.196 39.6084C12.5649 39.6084 8 44.1733 8 49.8044C8 55.4355 12.5649 60.0003 18.196 60.0003Z" fill="#589BB9"/>
<path d="M32.607 19.3095C36.8346 19.3095 40.2617 15.8823 40.2617 11.6547C40.2617 7.42714 36.8346 4 32.607 4C28.3794 4 24.9522 7.42714 24.9522 11.6547C24.9522 15.8823 28.3794 19.3095 32.607 19.3095Z" fill="#589BB9"/>
<path d="M24.5184 38.2138C27.3425 38.2138 29.6319 35.9244 29.6319 33.1003C29.6319 30.2762 27.3425 27.9868 24.5184 27.9868C21.6943 27.9868 19.4049 30.2762 19.4049 33.1003C19.4049 35.9244 21.6943 38.2138 24.5184 38.2138Z" fill="#589BB9"/>
<path d="M28.113 26.0957C29.5164 26.0957 30.6542 24.9579 30.6542 23.5544C30.6542 22.1509 29.5164 21.0132 28.113 21.0132C26.7095 21.0132 25.5717 22.1509 25.5717 23.5544C25.5717 24.9579 26.7095 26.0957 28.113 26.0957Z" fill="#589BB9"/>
</svg>