<?xml version="1.0" encoding="utf-8"?>
<svg xmlns="http://www.w3.org/2000/svg" width="234" height="64" viewBox="0 0 234 64" fill="none">
<g clip-path="url(#clip0_699_3256)">
<path d="M63.7398 34.7603L48.6438 20.2373C48.5539 20.1499 48.4588 20.0678 48.3588 19.9914C47.2456 19.1257 45.7157 18.9483 44.4205 19.5347C44.0285 19.706 43.6721 19.9441 43.3682 20.2373L39.8537 23.4764L36.3244 26.8699L44.8954 35.1116C45.1291 35.3365 45.5237 35.744 46.0279 36.2639C47.2409 37.5075 49.0603 39.3906 50.8213 40.9854C51.5519 41.6249 52.173 42.1659 52.7356 42.6015L53.1668 42.9247C53.429 43.1118 53.7199 43.2587 54.029 43.3603C54.6392 43.5439 55.2747 43.6387 55.9141 43.6414C57.0419 43.6573 58.1649 43.4959 59.2387 43.1635C59.2387 43.1635 59.9695 42.9387 60.0425 42.9177C60.3293 42.7245 60.6028 42.5132 60.8608 42.2853C62.0445 41.2596 63.3525 39.9456 63.3599 39.9316C64.7993 38.5544 65.3326 36.2639 63.7398 34.7603Z" fill="#B8B9F5"/>
<path fill-rule="evenodd" clip-rule="evenodd" d="M55.9141 43.6411C57.0419 43.657 58.1649 43.4956 59.2386 43.1634L60.1009 42.9315L59.3701 43.3953L59.2459 43.4655L59.0632 43.571L58.7126 43.7465L58.4057 43.8941C57.5083 44.3674 56.5061 44.6275 55.4829 44.6529H54.9276H43.6604H15.5729H15.3391C14.7193 44.6619 14.1171 44.4548 13.6439 44.0698L9.34744 39.9454C7.99567 38.6806 7.38189 36.5729 8.84326 35.006V34.9639C8.85601 34.9516 8.86786 34.9343 8.87976 34.9167C8.90197 34.8842 8.92432 34.8515 8.95287 34.8515L24.1585 20.1879C24.331 20.0236 24.5194 19.8754 24.7211 19.7452C26.1933 18.9525 28.0179 19.0941 29.3389 20.1036L29.4266 20.1879L33.0289 23.701L33.672 24.3193L36.3243 26.8698L44.8953 35.0834C45.1209 35.3002 45.496 35.6871 45.9748 36.1809L46.0279 36.2356C46.3445 36.5512 46.7026 36.915 47.0902 37.3091C48.1869 38.4237 49.52 39.7787 50.8211 40.9572C51.5299 41.5965 52.1729 42.1375 52.7355 42.5732L53.1666 42.8963C53.427 43.0934 53.718 43.2498 54.0288 43.3601C54.6391 43.5438 55.2745 43.6384 55.9141 43.6411ZM24.7517 29.3711C24.6398 29.4766 24.5766 29.621 24.5764 29.7716C24.5688 29.9218 24.6241 30.0685 24.7298 30.1792L26.995 32.3573C27.115 32.4659 27.2762 32.5221 27.4408 32.5129C27.6052 32.5035 27.7584 32.4295 27.8645 32.308L28.2225 31.9708L28.354 31.8444L29.0043 31.2191L29.1359 31.0925L29.7204 30.5375C29.8319 30.4318 29.8948 30.2876 29.8948 30.137C29.8948 29.9865 29.8319 29.8421 29.7204 29.7365L27.4553 27.5654C27.3776 27.4853 27.2751 27.4311 27.163 27.4109H27.046C26.8908 27.4116 26.7418 27.4693 26.6297 27.5725L24.7517 29.3711Z" fill="#8485F3"/>
<path fill-rule="evenodd" clip-rule="evenodd" d="M80.6275 19.3308H77.4125V52.9018H80.6275V39.9456C83.4967 43.2243 86.8529 44.8639 90.6964 44.8639C94.1407 44.899 97.4389 43.5278 99.7715 41.0908C102.246 38.6885 103.61 35.4291 103.556 32.0482C103.612 28.6629 102.23 25.4021 99.7277 23.0196C97.3646 20.5973 94.0552 19.2367 90.6014 19.2676C86.5046 19.2676 83.1801 20.9515 80.6275 24.3194V19.3308ZM97.4182 25.1556C99.3252 26.9935 100.379 29.4944 100.341 32.0904H100.326C100.383 34.7228 99.3196 37.2635 97.3817 39.1235C95.5443 40.9619 93.0097 42.0044 90.3581 42.0122C87.7066 42.0202 85.1653 40.993 83.316 39.1658C81.3793 37.3092 80.3221 34.7682 80.3933 32.1396C80.3229 29.5218 81.3559 26.9879 83.2575 25.1134C85.1292 23.2917 87.684 22.2699 90.347 22.2778C93.0102 22.2857 95.5583 23.3227 97.4182 25.1556Z" fill="black"/>
<path d="M108.363 19.317H111.673V23.4062C112.344 22.2316 113.213 21.1726 114.245 20.2726C115.02 19.627 116.011 19.2705 117.036 19.2678C118.125 19.2843 119.191 19.5673 120.135 20.0899L118.432 22.7247C117.993 22.4624 117.487 22.3213 116.971 22.3172C115.869 22.376 114.854 22.9106 114.209 23.7716C113.277 24.8632 112.622 26.1475 112.294 27.5235C111.885 29.0552 111.68 31.8353 111.68 35.8635V44.7587H108.37L108.363 19.317Z" fill="black"/>
<path fill-rule="evenodd" clip-rule="evenodd" d="M126.426 23.0266C123.946 25.4258 122.581 28.6872 122.641 32.0692C122.586 35.413 123.944 38.6353 126.404 40.9995C128.844 43.3858 132.178 44.7301 135.658 44.7301C139.138 44.7301 142.472 43.3858 144.912 40.9995C149.922 35.9691 149.899 28.0305 144.861 23.0266C142.445 20.6246 139.119 19.2683 135.643 19.2683C132.168 19.2683 128.842 20.6246 126.426 23.0266ZM142.481 25.2186C144.373 27.052 145.425 29.5357 145.404 32.1183C145.454 34.6897 144.415 37.1702 142.525 38.9899C140.72 40.8292 138.191 41.8498 135.561 41.8004C132.952 41.853 130.445 40.8301 128.671 38.9899C126.837 37.1594 125.838 34.7015 125.894 32.1605C125.855 29.5718 126.888 27.0743 128.766 25.2186C130.523 23.3621 133.013 22.3039 135.623 22.3039C138.234 22.3039 140.724 23.3621 142.481 25.2186Z" fill="black"/>
<path d="M165.144 10.6186V13.6609C164.114 13.1931 162.995 12.9302 161.856 12.888C161.098 12.7787 160.349 13.1346 159.979 13.7803C159.643 14.7048 159.499 15.6834 159.555 16.6611V19.3029H164.801V21.9377H159.555V44.7024H156.325V21.9377H153.037V19.3029H156.325V16.1973C156.325 14.0754 156.734 12.5156 157.553 11.5179C158.508 10.4598 159.929 9.90155 161.382 10.0143C162.658 10.0518 163.925 10.255 165.144 10.6186Z" fill="black"/>
<path fill-rule="evenodd" clip-rule="evenodd" d="M193.32 37.4584L190.603 36.1024C188.507 39.92 185.363 41.8287 181.17 41.8287C178.689 41.877 176.304 40.9208 174.593 39.1939C172.735 37.3282 171.704 34.842 171.715 32.2591H194.146C194.054 28.2589 192.777 25.0995 190.318 22.7809C187.911 20.465 184.624 19.1958 181.22 19.2678C177.768 19.2021 174.451 20.566 172.117 23.0127C167.223 28.066 167.223 35.8972 172.117 40.9505C174.512 43.4168 177.895 44.7735 181.403 44.6743C186.659 44.6743 190.631 42.269 193.32 37.4584ZM187.314 24.186C189.083 25.5078 190.26 27.4311 190.601 29.561H172.064C173.506 24.6848 176.573 22.2467 181.263 22.2467C183.45 22.217 185.583 22.9006 187.314 24.186Z" fill="black"/>
<path fill-rule="evenodd" clip-rule="evenodd" d="M223.929 37.3672L221.224 36.0182C219.139 39.8217 215.998 41.7234 211.799 41.7234C209.339 41.7655 206.975 40.812 205.281 39.0956C203.435 37.2231 202.422 34.7333 202.453 32.1538H224.747C224.644 28.177 223.376 25.034 220.939 22.7247C218.538 20.4353 215.268 19.1869 211.886 19.2679C208.449 19.2016 205.148 20.5608 202.827 22.9987C197.951 28.0242 197.951 35.8197 202.827 40.8451C205.211 43.2995 208.579 44.6485 212.07 44.5479C217.286 44.5479 221.24 42.1543 223.929 37.3672ZM217.953 24.1651C219.714 25.4774 220.885 27.3881 221.227 29.505H202.777C204.209 24.6569 207.261 22.2329 211.933 22.2329C214.108 22.2031 216.232 22.8843 217.953 24.1651Z" fill="black"/>
</g>
<defs>
<clipPath id="clip0_699_3256">
<rect width="218" height="43" fill="white" transform="translate(8 10)"/>
</clipPath>
</defs>
</svg>