<?xml version="1.0" encoding="utf-8"?>
<svg xmlns="http://www.w3.org/2000/svg" width="165" height="64" viewBox="0 0 165 64" fill="none">
<g clip-path="url(#clip0_699_1484)">
<path fill-rule="evenodd" clip-rule="evenodd" d="M117.704 21.7886H113.056C112.866 21.7886 112.713 21.9428 112.713 22.1315V36.6084C112.713 36.7977 112.866 36.951 113.056 36.951H117.704C117.894 36.951 118.047 36.7977 118.047 36.6084V22.1315C118.047 21.9428 117.894 21.7886 117.704 21.7886ZM138.47 17.3391H133.823C133.633 17.3391 133.479 17.4924 133.479 17.682V36.609C133.48 36.7002 133.516 36.7874 133.581 36.8516C133.645 36.9159 133.732 36.9519 133.823 36.9519H138.47C138.561 36.9521 138.649 36.9161 138.713 36.8519C138.778 36.7876 138.814 36.7003 138.815 36.609V17.682C138.815 17.4927 138.661 17.3391 138.47 17.3391ZM115.373 14.399C113.746 14.399 112.426 15.715 112.426 17.3388C112.426 18.9626 113.746 20.2793 115.373 20.2793C117 20.2793 118.32 18.9626 118.32 17.3388C118.32 15.7153 117 14.399 115.373 14.399ZM156.998 23.6918V22.137C156.998 21.9477 156.843 21.7941 156.654 21.7941H152.006C151.817 21.7941 151.662 21.9474 151.662 22.137V30.0307C151.662 31.6848 150.764 32.5529 149.5 32.5529C148.237 32.5529 147.422 31.6848 147.422 30.0307V22.1376C147.422 21.9483 147.268 21.7947 147.079 21.7947H142.431C142.241 21.7947 142.088 21.948 142.088 22.1376V30.0307C142.088 33.1437 142.532 34.6206 143.06 35.3199C143.979 36.5413 145.345 37.2878 147.141 37.2878C148.761 37.2878 149.88 36.5348 150.872 35.7568C151.187 35.5101 151.656 35.3678 151.656 36.0429V37.3941C151.628 38.3003 151.037 39.0686 150.292 39.4726C150.275 39.4817 150.257 39.4909 150.239 39.4991C149.881 39.6817 149.479 39.7898 149.047 39.777C149.035 39.777 148.016 39.7678 147.463 39.6753C147.258 39.6411 147.075 39.773 147.057 39.98L146.71 43.9874C146.703 44.0745 146.728 44.1613 146.782 44.2304C146.835 44.2996 146.913 44.346 146.998 44.3605C148.74 44.6332 150.587 44.5791 152.528 43.9116C155.596 42.8603 157 40.5858 157 37.2948V23.7086C157 23.704 156.998 23.697 156.998 23.6918ZM130.161 21.7886H128.065C127.875 21.7886 127.722 21.6344 127.722 21.4457V17.682C127.722 17.4927 127.567 17.3391 127.378 17.3391H122.731C122.541 17.3391 122.386 17.4927 122.386 17.682V21.4451C122.386 21.6344 122.233 21.7886 122.043 21.7886H120.598C120.408 21.7886 120.254 21.9413 120.254 22.1315V26.1101C120.254 26.3003 120.408 26.4533 120.598 26.4533H122.043C122.233 26.4533 122.386 26.6066 122.386 26.7962V33.3672C122.386 35.5321 123.879 37.2872 126.316 37.2872C128.098 37.2872 129.63 37.0093 130.266 36.7034C130.405 36.6362 130.505 36.5245 130.505 36.3742V33.1544C130.505 32.9437 130.318 32.7849 130.109 32.8161C129.341 32.9306 127.722 33.2811 127.722 31.2454V26.7965C127.722 26.6066 127.875 26.4533 128.065 26.4533H130.161C130.351 26.4533 130.504 26.3006 130.504 26.1104V22.1315C130.504 21.9416 130.351 21.7886 130.161 21.7886ZM57.5939 26.711C59.4415 26.711 60.5055 25.8173 60.5055 24.3922V24.3361C60.5055 22.8002 59.3855 22.0176 57.565 22.0176H54.3524C54.1629 22.0176 54.0097 22.1709 54.0097 22.3596V26.3697C54.0097 26.5581 54.1629 26.711 54.3524 26.711H57.5939ZM48.5779 17.6655C48.5779 17.4768 48.7311 17.3235 48.9206 17.3235H57.846C60.8424 17.3235 62.9138 18.1061 64.2302 19.4472C65.3781 20.5642 65.9656 22.0732 65.9656 24.0011V24.0561C65.9656 26.8927 64.5288 28.8237 62.3023 29.8973C62.1119 29.9877 62.042 30.221 62.1609 30.3944L66.2426 36.3449C66.2778 36.3964 66.2983 36.4566 66.3018 36.519C66.3054 36.5814 66.2919 36.6435 66.2627 36.6987C66.2336 36.7539 66.1899 36.8 66.1365 36.8321C66.0831 36.8641 66.022 36.8809 65.9598 36.8805H60.5848C60.5088 36.8806 60.434 36.862 60.3669 36.8261C60.2998 36.7903 60.2425 36.7384 60.2002 36.675L56.5643 31.2194C56.5104 31.1388 56.4375 31.0727 56.3521 31.0271C56.2667 30.9815 56.1714 30.9578 56.0747 30.958H54.3527C54.1632 30.958 54.01 31.1107 54.01 31.2994V36.5391C54.01 36.7278 53.8561 36.8811 53.667 36.8811H48.9203C48.8754 36.8812 48.831 36.8725 48.7896 36.8553C48.7481 36.8382 48.7104 36.8131 48.6786 36.7813C48.6469 36.7495 48.6216 36.7118 48.6044 36.6702C48.5872 36.6287 48.5783 36.5841 48.5782 36.5391L48.5779 17.6655ZM77.8749 27.7254C77.8749 27.9138 77.7311 28.0658 77.5538 28.0658H72.8053C72.6283 28.0658 72.4845 27.9138 72.4845 27.7254C72.4845 26.2429 73.6506 25.0744 75.1579 25.0744C76.7827 25.0744 77.8749 26.2435 77.8749 27.7254ZM74.9265 21.4854C70.1963 21.4854 67.2613 25.1883 67.2613 29.5526C67.2613 33.9159 70.4784 37.2875 74.9265 37.2875C78.9079 37.2875 81.266 35.5581 82.3431 32.9745C82.4355 32.7516 82.261 32.5049 82.0189 32.5049H77.9509C77.7867 32.5049 77.6347 32.5773 77.521 32.6948C76.9949 33.2405 76.3335 33.5956 75.4064 33.5956C75.4064 33.5956 75.4021 33.5944 75.3994 33.5944L75.3979 33.5959C73.667 33.5959 72.3002 32.6951 72.3002 31.2142C72.3004 31.1237 72.3364 31.0369 72.4003 30.973C72.4641 30.9091 72.5506 30.8732 72.6408 30.8732H72.6511L72.6526 30.8722H82.3826C82.4735 30.8722 82.5607 30.8361 82.6251 30.7717C82.6895 30.7074 82.7258 30.62 82.7262 30.5287V29.5526C82.7262 25.1886 80.0248 21.4854 74.9265 21.4854ZM104.192 21.4576C102.109 21.4576 100.621 22.2982 99.3543 23.653C99.3268 23.6832 99.2926 23.7066 99.2545 23.7214C99.2165 23.7361 99.1755 23.7418 99.1349 23.7381C99.0942 23.7343 99.055 23.7211 99.0203 23.6996C98.9856 23.678 98.9563 23.6487 98.9347 23.6139C98.0842 22.2368 96.6146 21.4576 94.7292 21.4576C94.6633 21.4576 94.5955 21.4582 94.5249 21.4594C92.965 21.5181 91.5835 22.2518 90.6813 23.3678C90.5241 23.5623 90.21 23.4548 90.21 23.2045V22.1254C90.2098 22.0817 90.201 22.0384 90.1842 21.9981C90.1673 21.9578 90.1428 21.9212 90.1118 21.8905C90.0809 21.8597 90.0443 21.8354 90.004 21.8188C89.9637 21.8023 89.9205 21.7939 89.877 21.7941H85.2179C85.0281 21.7941 84.8743 21.9474 84.8743 22.137V36.6084C84.8743 36.7984 85.0281 36.9513 85.2179 36.9513H89.8655C90.0555 36.9513 90.2097 36.7987 90.2097 36.6084V28.7147C90.2097 27.061 91.1076 26.1926 92.3711 26.1926C93.6349 26.1926 94.4492 27.061 94.4492 28.7147V36.6084C94.4492 36.7984 94.6027 36.9513 94.7928 36.9513H99.4404C99.6298 36.9513 99.784 36.7987 99.784 36.6084V28.7147C99.784 27.061 100.711 26.1926 101.974 26.1926C103.237 26.1926 104.052 27.061 104.052 28.7147V36.6084C104.052 36.7984 104.205 36.9513 104.396 36.9513H109.043C109.232 36.9513 109.387 36.7987 109.387 36.6084V27.0054C109.387 23.475 107.422 21.4576 104.192 21.4576ZM35.7231 31.93L24.1169 23.4628C23.8318 23.255 23.4886 23.1431 23.1363 23.1431C22.784 23.1431 22.4407 23.255 22.1556 23.4628L16.9832 27.2359C16.835 27.3444 16.6669 27.4224 16.4886 27.4654C16.3102 27.5084 16.1252 27.5155 15.9441 27.4863C15.7628 27.458 15.589 27.3939 15.4325 27.2977C15.2761 27.2015 15.1402 27.075 15.0328 26.9257C14.9245 26.7771 14.8467 26.6085 14.8039 26.4294C14.7611 26.2504 14.7541 26.0647 14.7835 25.8829C14.8116 25.7009 14.8754 25.5264 14.9712 25.3693C15.067 25.2122 15.1928 25.0758 15.3414 24.9678L19.0087 22.2921H19.0099L22.2021 19.9629C23.9859 18.661 26.4447 18.8225 28.0405 20.3489C28.3923 20.6872 28.9421 20.708 29.3359 20.4197L35.7216 15.7614V31.93H35.7231ZM35.5766 35.2399L35.5598 35.3513C35.5209 35.5956 35.3585 35.9492 35.1803 36.119C34.7108 36.5684 34.0227 36.6045 33.5222 36.238L27.8571 32.1016L27.8161 32.0719C27.4725 31.821 26.9117 31.824 26.5992 32.1135C26.495 32.2083 26.4132 32.3252 26.3597 32.4558C26.3062 32.5864 26.2824 32.7273 26.2899 32.8682C26.2975 33.0092 26.3363 33.1467 26.4034 33.2708C26.4706 33.3948 26.5645 33.5022 26.6782 33.5852L26.7472 33.6353L31.9425 37.4261C32.2314 37.6374 32.4448 37.9498 32.4938 38.3064C32.5622 38.7987 32.3642 39.2613 31.9759 39.5449L31.8573 39.6313C31.637 39.7922 31.3715 39.8789 31.0991 39.8789C30.8267 39.8789 30.5612 39.7922 30.3409 39.6313L23.8983 34.9309C23.5547 34.6805 22.9927 34.6835 22.6808 34.9724C22.5765 35.0671 22.4947 35.184 22.4411 35.3146C22.3875 35.4451 22.3636 35.586 22.3711 35.727C22.3786 35.8679 22.4173 36.0055 22.4844 36.1295C22.5514 36.2536 22.6452 36.3611 22.7589 36.4442L28.0238 40.2842C28.3136 40.4961 28.5261 40.8087 28.5748 41.1651C28.6447 41.6582 28.4464 42.1196 28.0578 42.4038L27.938 42.4906C27.7178 42.6513 27.4525 42.7379 27.1803 42.7379C26.908 42.7379 26.6427 42.6513 26.4225 42.4906L25.2487 41.6338L19.979 37.7895C19.636 37.5391 19.0743 37.5422 18.7627 37.8316C18.6583 37.9263 18.5764 38.0431 18.5227 38.1736C18.4691 38.3041 18.4452 38.4449 18.4527 38.5859C18.4601 38.7269 18.4989 38.8644 18.566 38.9884C18.6332 39.1124 18.7271 39.2198 18.8408 39.3028L24.1057 43.144C24.3952 43.3547 24.6074 43.6677 24.6573 44.0234C24.7257 44.5165 24.5281 44.9791 24.1391 45.2625L24.0236 45.3471C23.8279 45.4902 23.5959 45.5749 23.3544 45.5915C23.1128 45.6081 22.8715 45.5558 22.6583 45.4408L10.058 36.2481V15.7608L15.5333 19.7559L17.259 21.0139L14.1318 23.2958C13.7639 23.5625 13.4524 23.9 13.2155 24.2886C12.9785 24.6773 12.8207 25.1093 12.7513 25.5596C12.6788 26.0094 12.696 26.4692 12.802 26.9123C12.9079 27.3554 13.1005 27.7729 13.3686 28.1406C13.6342 28.5099 13.9701 28.8227 14.3569 29.0609C14.7436 29.299 15.1736 29.4578 15.6218 29.5281C15.8049 29.5574 15.9879 29.5715 16.1692 29.5715C16.8935 29.5715 17.5965 29.3437 18.1934 28.9089L22.567 25.718C22.7324 25.5972 22.9317 25.5321 23.1363 25.5321C23.3408 25.5321 23.5401 25.5972 23.7055 25.718L35.18 34.0936C35.3349 34.2371 35.4521 34.4168 35.5212 34.6167C35.5903 34.8166 35.6095 35.0309 35.5766 35.2399ZM34.2477 14.2811L29.0476 18.0765C28.8886 18.1916 28.6727 18.2032 28.5079 18.0948C27.4605 17.4117 26.2425 17.0393 24.9937 17.0204C23.745 17.0015 22.5163 17.3369 21.4489 17.988C21.3812 18.0177 21.3167 18.0543 21.2564 18.0973L19.0093 19.737L11.5334 14.2817H34.2483L34.2477 14.2811ZM37.4795 12.5171C37.384 12.4211 37.2705 12.345 37.1455 12.2931C37.0206 12.2412 36.8867 12.2146 36.7515 12.2148H9.02901C8.89387 12.2148 8.76004 12.2415 8.63518 12.2934C8.51032 12.3453 8.39686 12.4214 8.3013 12.5174C8.20574 12.6134 8.12995 12.7273 8.07825 12.8527C8.02655 12.978 7.99996 13.1124 8 13.2481V36.7748C8 37.1052 8.15812 37.4161 8.42359 37.6103L21.7591 47.3425C22.0877 47.5823 22.4842 47.7114 22.8904 47.7114C23.2967 47.7114 23.6925 47.5823 24.0211 47.3425L37.356 37.6136C37.4875 37.5178 37.5946 37.3921 37.6685 37.2468C37.7423 37.1015 37.781 36.9407 37.7811 36.7776V13.249C37.7811 12.9748 37.6729 12.711 37.4795 12.5171ZM53.1409 46.6353C53.1409 45.9342 52.6285 45.4744 51.9085 45.4744H50.1518V47.7858H51.9085C52.6285 47.7858 53.1409 47.3257 53.1409 46.6353ZM48.8753 51.6536V44.3452H52.0833C53.6107 44.3452 54.4509 45.3864 54.4509 46.6353C54.4509 47.8738 53.5995 48.9144 52.083 48.9144H50.1521V51.6533L48.8753 51.6536ZM55.2695 51.6536V46.362H56.415V47.1284C56.8188 46.6246 57.4513 46.2301 58.1279 46.2301V47.3696C58.0131 47.3456 57.896 47.3346 57.7788 47.3367C57.2877 47.3367 56.6439 47.6655 56.415 48.0487V51.6533L55.2695 51.6536ZM62.7432 49.0017C62.7432 48.0704 62.2086 47.249 61.2264 47.249C60.2555 47.249 59.71 48.0704 59.71 49.0017C59.71 49.9443 60.2555 50.766 61.2264 50.766C62.2086 50.766 62.7432 49.9443 62.7432 49.0017ZM58.5207 49.0017C58.5207 47.4793 59.5464 46.2301 61.2264 46.2301C62.9071 46.2301 63.9328 47.479 63.9328 49.002C63.9328 50.5144 62.9071 51.7855 61.2264 51.7855C59.5464 51.7855 58.5207 50.5138 58.5207 49.0017ZM71.3524 51.6536V48.2017C71.3524 47.6326 71.1012 47.249 70.4797 47.249C69.9664 47.249 69.4862 47.5996 69.2572 47.9504V51.6536H68.1115V48.2017C68.1115 47.6326 67.8712 47.249 67.2494 47.249C66.7367 47.249 66.2672 47.6106 66.0276 47.9504V51.6536H64.8812V46.362H66.0276V47.0735C66.2563 46.7559 66.9438 46.2301 67.7511 46.2301C68.5366 46.2301 69.0167 46.6246 69.1913 47.1944C69.4862 46.7232 70.1844 46.2304 70.9808 46.2304C71.9408 46.2304 72.4972 46.7562 72.4972 47.8298V51.6542H71.3515M73.7637 51.6536H74.9095V46.362H73.7637V51.6536ZM73.633 45.0032C73.6327 44.9097 73.6509 44.817 73.6865 44.7305C73.722 44.644 73.7742 44.5654 73.8401 44.4992C73.906 44.433 73.9843 44.3806 74.0704 44.3449C74.1566 44.3092 74.2489 44.2909 74.3421 44.2912C74.4352 44.2909 74.5275 44.3092 74.6136 44.3448C74.6997 44.3805 74.778 44.4329 74.8438 44.499C74.9097 44.5651 74.962 44.6436 74.9976 44.73C75.0331 44.8165 75.0514 44.9091 75.0512 45.0026C75.0515 45.0962 75.0333 45.189 74.9977 45.2755C74.9622 45.362 74.91 45.4407 74.8441 45.5069C74.7782 45.5731 74.6999 45.6256 74.6138 45.6614C74.5277 45.6971 74.4353 45.7155 74.3421 45.7153C74.2489 45.7155 74.1566 45.6971 74.0705 45.6614C73.9843 45.6257 73.9061 45.5732 73.8402 45.507C73.7743 45.4408 73.7221 45.3622 73.6865 45.2757C73.651 45.1892 73.6328 45.0968 73.633 45.0032ZM75.9461 50.9522L76.4698 50.1309C76.8407 50.5141 77.5714 50.8649 78.248 50.8649C78.9353 50.8649 79.2953 50.5797 79.2953 50.1635C79.2953 49.1223 76.1094 49.8674 76.1094 47.8295C76.1094 46.9645 76.8514 46.2304 78.1823 46.2304C79.0773 46.2304 79.7535 46.548 80.2227 46.9645L79.7429 47.7751C79.4266 47.4246 78.848 47.14 78.1823 47.14C77.5824 47.14 77.2114 47.4246 77.2114 47.7971C77.2114 48.7284 80.397 48.0274 80.397 50.1309C80.397 51.0732 79.6225 51.7858 78.2039 51.7858C77.2984 51.7858 76.4916 51.4897 75.9461 50.9522ZM83.6707 47.1727C82.7001 47.1727 82.2415 47.9284 82.198 48.5639H85.1659C85.1334 47.9391 84.7073 47.1727 83.6707 47.1727ZM81.0088 49.0017C81.0088 47.4683 82.1217 46.2301 83.6817 46.2301C85.2641 46.2301 86.2679 47.4353 86.2679 49.1003V49.3858H82.2093C82.2966 50.1745 82.8859 50.8423 83.8787 50.8423C84.4023 50.8423 85.0026 50.6347 85.3845 50.2512L85.9081 51.0069C85.3736 51.5107 84.5988 51.7855 83.7695 51.7855C82.1768 51.7855 81.0088 50.6784 81.0088 49.0017ZM86.7371 50.9522L87.261 50.1309C87.632 50.5141 88.3627 50.8649 89.0393 50.8649C89.7265 50.8649 90.0868 50.5797 90.0868 50.1635C90.0868 49.1223 86.9007 49.8674 86.9007 47.8295C86.9007 46.9645 87.6426 46.2304 88.9739 46.2304C89.8685 46.2304 90.5451 46.548 91.0143 46.9645L90.5338 47.7751C90.2176 47.4246 89.6398 47.14 88.9739 47.14C88.3736 47.14 88.003 47.4246 88.003 47.7971C88.003 48.7284 91.1888 48.0274 91.1888 50.1309C91.1888 51.0732 90.414 51.7858 88.9958 51.7858C88.0902 51.7858 87.2826 51.4897 86.7371 50.9522ZM100.387 47.9941C100.387 46.5916 99.5143 45.4744 97.8996 45.4744H96.4589V50.5248H97.8881C99.4705 50.5248 100.387 49.3858 100.387 47.9941ZM95.1823 51.6536V44.3452H97.8887C100.169 44.3452 101.696 45.8576 101.696 47.9941C101.696 50.1522 100.168 51.6536 97.899 51.6536H95.1823ZM105.024 47.1727C104.053 47.1727 103.595 47.9284 103.551 48.5639H106.519C106.486 47.9391 106.061 47.1727 105.024 47.1727ZM102.362 49.0017C102.362 47.4683 103.475 46.2301 105.035 46.2301C106.617 46.2301 107.621 47.4353 107.621 49.1003V49.3858H103.562C103.649 50.1745 104.239 50.8423 105.232 50.8423C105.755 50.8423 106.356 50.6347 106.737 50.2512L107.261 51.0069C106.726 51.5107 105.951 51.7855 105.122 51.7855C103.529 51.7855 102.362 50.6784 102.362 49.0017ZM108.538 51.6536H109.683V44.3452H108.538V51.6536ZM110.949 51.6536H112.095V46.362H110.949V51.6536ZM110.818 45.0032C110.818 44.9097 110.836 44.817 110.872 44.7305C110.907 44.644 110.959 44.5654 111.025 44.4992C111.091 44.433 111.17 44.3806 111.256 44.3449C111.342 44.3092 111.434 44.2909 111.527 44.2912C111.62 44.291 111.713 44.3093 111.799 44.345C111.885 44.3807 111.963 44.4331 112.029 44.4992C112.094 44.5653 112.147 44.6438 112.182 44.7302C112.218 44.8166 112.236 44.9092 112.236 45.0026C112.236 45.0962 112.218 45.1889 112.182 45.2754C112.147 45.3619 112.095 45.4405 112.029 45.5067C111.963 45.5729 111.885 45.6254 111.799 45.6612C111.713 45.697 111.621 45.7154 111.527 45.7153C111.434 45.7155 111.342 45.6972 111.256 45.6615C111.169 45.6258 111.091 45.5733 111.025 45.5071C110.959 45.4409 110.907 45.3623 110.871 45.2758C110.836 45.1893 110.818 45.0968 110.818 45.0032ZM114.965 51.6536L112.815 46.362H114.048L115.586 50.3278L117.125 46.3614H118.347L116.197 51.6536H114.965ZM120.976 47.1727C120.005 47.1727 119.547 47.9284 119.503 48.5639H122.471C122.438 47.9391 122.013 47.1727 120.976 47.1727ZM118.314 49.0017C118.314 47.4683 119.427 46.2301 120.988 46.2301C122.569 46.2301 123.573 47.4353 123.573 49.1003V49.3858H119.514C119.602 50.1745 120.191 50.8423 121.184 50.8423C121.708 50.8423 122.308 50.6347 122.69 50.2512L123.213 51.0069C122.678 51.5107 121.904 51.7855 121.074 51.7855C119.482 51.7855 118.314 50.6784 118.314 49.0017ZM124.49 51.6536V46.362H125.636V47.1284C126.039 46.6246 126.672 46.2301 127.349 46.2301V47.3696C127.234 47.3456 127.116 47.3346 126.999 47.3367C126.508 47.3367 125.865 47.6655 125.636 48.0487V51.6533L124.49 51.6536ZM130.185 47.1727C129.215 47.1727 128.756 47.9284 128.713 48.5639H131.68C131.648 47.9391 131.222 47.1727 130.185 47.1727ZM127.523 49.0017C127.523 47.4683 128.636 46.2301 130.196 46.2301C131.779 46.2301 132.782 47.4353 132.782 49.1003V49.3858H128.723C128.811 50.1745 129.4 50.8423 130.393 50.8423C130.916 50.8423 131.517 50.6347 131.898 50.2512L132.422 51.0069C131.888 51.5107 131.113 51.7855 130.284 51.7855C128.691 51.7855 127.523 50.6784 127.523 49.0017ZM137.409 50.0539V47.9611C137.158 47.5666 136.591 47.249 136.056 47.249C135.139 47.249 134.561 47.9834 134.561 49.0017C134.561 50.0319 135.139 50.766 136.056 50.766C136.591 50.766 137.158 50.4484 137.409 50.0539ZM137.409 51.6539V50.9303C137.005 51.4564 136.405 51.7852 135.718 51.7852C134.376 51.7852 133.383 50.7553 133.383 49.002C133.383 47.2933 134.365 46.2304 135.718 46.2304C136.383 46.2304 136.994 46.5266 137.409 47.0961V44.3458H138.555V51.6542L137.409 51.6539Z" fill="#212E61"/>
</g>
<defs>
<clipPath id="clip0_699_1484">
<rect width="149" height="40" fill="white" transform="translate(8 12)"/>
</clipPath>
</defs>
</svg>