<?xml version="1.0" encoding="utf-8"?>
<svg xmlns="http://www.w3.org/2000/svg" width="101" height="64" viewBox="0 0 101 64" fill="none">
<g clip-path="url(#clip0_699_1517)">
<path d="M65.5357 45.7245H72.6071V26.5756H65.5357V45.7245ZM61.5357 26.3001C55 26.5068 51.6786 29.3309 51.6786 34.9446V45.7245H58.8214V36.9422C58.8214 33.567 59.2857 32.1205 63.4286 31.9828V26.369C62.9643 26.3001 62.4643 26.2657 61.9643 26.2657L61.5357 26.3001ZM8 27.8844C8 30.0886 9 35.2891 18.1071 35.909C18.8929 35.9434 20.9286 36.0812 20.9286 37.941C20.9286 39.4563 19.25 40.3862 16.4286 40.3862C13.7143 40.3173 11.0357 39.8007 8.5 38.8708V45.0012C11.5714 45.7245 14.75 46.0689 17.9286 46.0344C25.7143 46.0344 29.2143 41.7983 29.2143 37.5966C29.2143 32.8438 25.2857 29.7442 18.75 29.3309C17.8571 29.262 15.7857 29.1587 15.7857 27.3333C15.7857 25.1636 18.75 25.1636 19.8929 25.1636C21.8571 25.1636 24.3929 25.7146 26.2143 26.2657C26.2143 26.2657 27.2143 26.6101 28.1071 26.9545L28.1786 26.9889V20.9963L28.0714 20.9619C25.9286 20.2386 23.4286 19.5498 18.8214 19.5498C10.8214 19.5498 8 24.0271 8 27.8844ZM31 20.9274V45.7245H38.2857V38.0443C40.3929 41.1095 41.4643 45.7245 41.4643 45.7245H50.2143C49.3571 42.246 45.5714 35.8745 45.5714 35.8745C47.8214 33.0849 49.5357 29.9508 50.7143 26.5756H42.3214C41.3571 28.9865 40 31.2595 38.2857 33.2571V19.5498L31 20.9274ZM75.6071 20.7552V45.7245H82.6786V19.5498L75.6071 20.7552ZM85.9286 20.7552V45.7245H93V19.5498L85.9286 20.7552ZM69.0714 18C67.1429 18 65.5714 19.5154 65.5714 21.3752C65.5714 23.2349 67.1429 24.7503 69.0714 24.7503C71 24.7503 72.5714 23.2349 72.5714 21.3752C72.5357 19.5154 71 18 69.0714 18Z" fill="#4F2455"/>
<mask id="mask0_699_1517" style="mask-type:luminance" maskUnits="userSpaceOnUse" x="8" y="18" width="85" height="29">
<path d="M65.5357 45.7245H72.6071V26.5756H65.5357V45.7245ZM61.5357 26.3001C55 26.5068 51.6786 29.3309 51.6786 34.9446V45.7245H58.8214V36.9422C58.8214 33.567 59.2857 32.1205 63.4286 31.9828V26.369C62.9643 26.3001 62.4643 26.2657 61.9643 26.2657L61.5357 26.3001ZM8 27.8844C8 30.0886 9 35.2891 18.1071 35.909C18.8929 35.9434 20.9286 36.0812 20.9286 37.941C20.9286 39.4563 19.25 40.3862 16.4286 40.3862C13.7143 40.3173 11.0357 39.8007 8.5 38.8708V45.0012C11.5714 45.7245 14.75 46.0689 17.9286 46.0344C25.7143 46.0344 29.2143 41.7983 29.2143 37.5966C29.2143 32.8438 25.2857 29.7442 18.75 29.3309C17.8571 29.262 15.7857 29.1587 15.7857 27.3333C15.7857 25.1636 18.75 25.1636 19.8929 25.1636C21.8571 25.1636 24.3929 25.7146 26.2143 26.2657C26.2143 26.2657 27.2143 26.6101 28.1071 26.9545L28.1786 26.9889V20.9963L28.0714 20.9619C25.9286 20.2386 23.4286 19.5498 18.8214 19.5498C10.8214 19.5498 8 24.0271 8 27.8844ZM31 20.9274V45.7245H38.2857V38.0443C40.3929 41.1095 41.4643 45.7245 41.4643 45.7245H50.2143C49.3571 42.246 45.5714 35.8745 45.5714 35.8745C47.8214 33.0849 49.5357 29.9508 50.7143 26.5756H42.3214C41.3571 28.9865 40 31.2595 38.2857 33.2571V19.5498L31 20.9274ZM75.6071 20.7552V45.7245H82.6786V19.5498L75.6071 20.7552ZM85.9286 20.7552V45.7245H93V19.5498L85.9286 20.7552ZM69.0714 18C67.1429 18 65.5714 19.5154 65.5714 21.3752C65.5714 23.2349 67.1429 24.7503 69.0714 24.7503C71 24.7503 72.5714 23.2349 72.5714 21.3752C72.5357 19.5154 71 18 69.0714 18Z" fill="white"/>
</mask>
<g mask="url(#mask0_699_1517)">
<path d="M93 18H8V46H93V18Z" fill="#4F2455"/>
</g>
</g>
<defs>
<clipPath id="clip0_699_1517">
<rect width="85" height="28" fill="white" transform="translate(8 18)"/>
</clipPath>
</defs>
</svg>