<?xml version="1.0" encoding="utf-8"?>
<svg xmlns="http://www.w3.org/2000/svg" width="221" height="64" viewBox="0 0 221 64" fill="none">
<g clip-path="url(#clip0_699_2683)">
<path d="M32.3241 50.2759C36.6646 57.8062 43.9036 57.8062 48.2513 50.2759L50.5672 45.9355L28.559 8H8L32.3241 50.2759Z" fill="#FFDD00"/>
<path d="M78.3576 34.0574C76.617 36.9559 72.8592 36.9559 71.4099 34.0574L56.3566 8H35.5063L59.8305 50.2759C64.1709 57.8062 71.4099 57.8062 75.7577 50.2759L91.9762 21.9026L83.8633 8H63.013L78.3576 34.0574Z" fill="#FFDD00"/>
<path d="M106.448 30.2923H110.788C113.396 20.4461 114.553 16.3969 114.845 13.7897C115.136 16.3969 116.294 20.7374 118.901 30.2923H123.242L129.323 8H125.266C122.659 18.1375 121.501 22.1867 121.21 24.7938C120.627 21.8953 119.469 17.2636 117.153 8H113.097C110.49 18.1375 109.332 22.478 109.04 25.0852C108.458 22.478 107.3 17.8462 104.7 8H100.644L106.448 30.2923Z" fill="black"/>
<path d="M135.979 30.5837C139.161 30.5837 142.351 28.8431 143.509 26.2432L140.611 24.794C140.319 25.6606 138.87 27.4012 136.27 27.4012C133.663 27.4012 131.93 25.9519 131.638 23.636H144.376V23.3447C144.376 20.1622 143.509 17.555 142.06 15.8144C140.611 14.3652 138.586 13.4985 136.27 13.4985C133.954 13.4985 131.93 14.3652 130.189 16.1057C128.74 17.555 127.873 19.8709 127.873 22.1868C127.582 27.1099 131.063 30.5837 135.979 30.5837ZM135.695 16.9797C138.011 16.9797 139.751 18.4289 140.035 20.4535H131.347C131.638 18.4216 133.379 16.9797 135.695 16.9797Z" fill="black"/>
<path d="M152.197 30.5836C156.254 30.5836 158.854 28.5591 158.854 25.6606C158.854 21.8954 155.38 21.0288 152.773 20.4462C151.032 19.8636 149.299 19.5795 149.299 18.4216C149.299 17.5549 150.165 16.681 151.615 16.681C153.064 16.681 154.222 17.5477 154.513 18.7056V19.2882L157.696 18.7056C157.696 15.5231 155.089 13.4912 151.323 13.4912C147.558 13.4912 145.242 15.5158 145.242 18.4143C145.242 21.8881 148.425 22.7548 151.032 23.3374C153.057 23.92 154.506 24.204 154.506 25.6533C154.506 26.8112 153.348 27.3938 151.899 27.3938C149.874 27.3938 148.425 26.5272 148.425 24.7866V24.4953L145.242 25.362C145.25 28.8504 149.015 30.5836 152.197 30.5836Z" fill="black"/>
<path d="M161.753 27.4013C161.753 29.1419 162.911 30.8751 164.935 30.8751C167.251 30.8751 168.118 30.5838 168.118 30.5838V27.4013C168.118 27.4013 167.535 27.4013 166.377 27.4013C165.795 27.4013 165.511 27.11 165.511 26.5347V16.9798H168.118V13.79H165.511V9.1582L161.746 10.0248V13.79H159.721V16.9725H161.746V27.4013H161.753Z" fill="black"/>
<path d="M190.417 16.1053V14.0808H187.234V30.5833H190.999V20.4531C190.999 19.5865 191.291 18.7125 191.866 18.1372C192.733 17.5546 193.891 17.2706 195.631 17.5546H195.922V14.0808H195.631C193.606 13.4981 191.575 14.3721 190.417 16.1053Z" fill="black"/>
<path d="M206.635 13.7896C204.319 13.7896 202.003 14.6562 201.137 16.3967V14.0809H197.663V30.5834H201.428V21.8952C201.428 18.9967 202.877 17.2634 205.484 17.2634C207.225 17.2634 209.249 18.13 209.249 21.6039V30.5834H213.015V21.0285C213 15.5301 209.817 13.7896 206.635 13.7896Z" fill="black"/>
<path d="M116.294 46.5111C116.294 50.2763 114.553 52.3009 111.371 52.3009C108.188 52.3009 106.447 50.2763 106.447 46.5111V33.4824H102.391V46.5111C102.391 52.5922 105.865 56.066 111.371 56.066C116.876 56.066 120.35 52.5922 120.35 46.5111V33.4824H116.294V46.5111Z" fill="black"/>
<path d="M131.347 38.9805C129.031 38.9805 126.715 39.8471 125.849 41.5877V39.2718H122.375V55.7743H126.14V47.0861C126.14 44.1876 127.589 42.4543 130.197 42.4543C131.937 42.4543 133.962 43.3209 133.962 46.7948V55.7743H137.727V46.2194C137.72 40.721 134.537 38.9805 131.347 38.9805Z" fill="black"/>
<path d="M144.092 39.2715H140.327V55.774H144.092V39.2715Z" fill="black"/>
<path d="M142.06 33.1909C140.902 33.1909 139.744 34.0576 139.744 35.5068C139.744 36.6648 140.61 37.8227 142.06 37.8227C143.218 37.8227 144.376 36.9561 144.376 35.5068C144.383 34.0576 143.509 33.1909 142.06 33.1909Z" fill="black"/>
<path d="M154.514 38.9805C152.198 38.9805 149.882 39.8471 148.433 41.2964C146.983 42.7456 146.117 45.0615 146.117 47.3774C146.117 52.3005 149.882 55.7743 154.805 55.7743C159.728 55.7743 163.493 52.3005 163.493 47.3774C163.493 45.0615 162.627 42.7456 160.886 41.2964C159.146 39.8471 157.121 38.9805 154.514 38.9805ZM154.514 52.3005C151.615 52.3005 149.591 50.2759 149.591 47.3774C149.591 44.4789 151.615 42.4543 154.514 42.4543C157.412 42.4543 159.437 44.4789 159.437 47.3774C159.437 50.2759 157.412 52.3005 154.514 52.3005Z" fill="black"/>
<path d="M173.914 38.9805C171.598 38.9805 169.283 39.8471 168.416 41.5877V39.2718H164.942V55.7743H168.707V47.0861C168.707 44.1876 170.156 42.4543 172.764 42.4543C174.504 42.4543 176.529 43.3209 176.529 46.7948V55.7743H180.294V46.2194C180.571 40.721 177.097 38.9805 173.914 38.9805Z" fill="black"/>
<path d="M177.388 13.7896C175.072 13.7896 173.047 14.6562 171.307 16.3967C169.858 17.846 168.991 20.1619 168.991 22.4778C168.991 27.4009 172.465 30.8747 177.388 30.8747C180.57 30.8747 183.76 29.1341 184.918 26.5342L182.02 25.085C181.728 25.9516 180.279 27.6922 177.679 27.6922C175.079 27.6922 173.339 26.2429 173.047 23.927H185.785V23.6357C185.785 20.4532 184.918 17.846 183.469 16.1054C181.728 14.3722 179.704 13.7896 177.388 13.7896ZM172.756 20.4532C173.047 18.4286 174.781 16.9794 177.097 16.9794C179.412 16.9794 181.153 18.4286 181.437 20.4532H172.756Z" fill="black"/>
</g>
<defs>
<clipPath id="clip0_699_2683">
<rect width="205" height="48.0657" fill="white" transform="translate(8 8)"/>
</clipPath>
</defs>
</svg>