<?xml version="1.0" encoding="utf-8"?>
<svg xmlns="http://www.w3.org/2000/svg" width="131" height="64" viewBox="0 0 131 64" fill="none">
<path d="M72.05 19.3887H79.1362L75.5712 44.6545H68.4851L72.05 19.3887ZM63.1169 19.3887L58.3349 33.9435L56.2482 19.3887H51.2924L45.0322 33.9003L44.2498 19.3887H37.3811L39.7721 44.6545H45.467L52.5097 28.6744L54.9876 44.6545H60.5955L69.8552 19.3887H63.1169ZM122.609 34.0731H105.785C105.872 37.3555 107.85 39.5149 110.763 39.5149C112.958 39.5149 114.697 38.3488 116.044 36.1246L121.724 38.6892C119.771 42.5101 115.658 44.9999 110.588 44.9999C103.677 44.9999 99.0898 40.3787 99.0898 32.9502C99.0898 24.7874 104.481 19 112.088 19C118.783 19 123 23.4917 123 30.4883C123 31.6545 122.87 32.8206 122.609 34.0731ZM116.305 29.2358C116.305 26.299 114.653 24.4418 112.001 24.4418C109.263 24.4418 107.002 26.3854 106.393 29.2358H116.305ZM15.2332 27.0024L8 35.4005H20.9152L22.3665 31.4405H16.8322L20.2138 27.5562L20.2246 27.4532L18.0258 23.6929H27.9183L20.2499 44.6545H25.4976L34.7573 19.3887H10.8354L15.2332 27.0024ZM90.6564 24.4419C93.1558 24.4419 95.3463 25.7773 97.2588 28.0663L98.2639 20.9435C96.4817 19.745 94.0688 19 90.8739 19C84.5266 19 80.9616 22.6927 80.9616 27.3787C80.9616 30.6287 82.7876 32.6154 85.7874 33.9003L87.2218 34.5482C89.8953 35.6819 90.6125 36.2434 90.6125 37.4419C90.6125 38.6836 89.4061 39.4717 87.5695 39.4717C84.5377 39.4825 82.0816 37.9385 80.2339 35.304L79.2101 42.5612C81.3135 44.1551 84.0108 45 87.5695 45C93.6018 45 97.3076 41.5449 97.3076 36.7508C97.3076 33.49 95.8516 31.3954 92.1779 29.7542L90.6125 29.0199C88.4394 28.059 87.6999 27.5299 87.6999 26.4718C87.6999 25.3273 88.7112 24.4419 90.6564 24.4419Z" fill="#0B3200"/>
</svg>