<?xml version="1.0" encoding="utf-8"?>
<svg xmlns="http://www.w3.org/2000/svg" width="244" height="64" viewBox="0 0 244 64" fill="none">
<path d="M69.0268 21.2065H75.2077L78.6646 35.3069L82.6707 21.2065H87.1848L91.1884 35.3069L94.6792 21.2065H100.833L94.5849 43.5962H88.5371L84.9519 30.9618L81.3668 43.5962H75.3045L69.0268 21.2065Z" fill="#813FD6"/>
<path d="M98.7705 35.597C98.7705 30.8341 102.581 27.1436 107.324 27.1436C112.068 27.1436 115.876 30.8244 115.876 35.597C115.876 40.3696 112.095 44.0505 107.324 44.0505C102.619 44.0288 98.7705 40.3624 98.7705 35.597ZM110.556 35.597C110.556 33.6165 109.18 32.2688 107.324 32.2688C105.469 32.2688 104.119 33.6165 104.119 35.597C104.119 37.5775 105.493 38.9277 107.324 38.9277C109.156 38.9277 110.561 37.58 110.561 35.597H110.556Z" fill="#813FD6"/>
<path d="M127.558 27.2812V33.16C125.444 32.8412 122.751 33.8001 122.751 36.9617V43.5795H117.429V27.6049H122.751V30.5829C123.4 28.3995 125.42 27.2812 127.558 27.2812Z" fill="#813FD6"/>
<path d="M129.065 20.2456H134.387V43.5892H129.065V20.2456Z" fill="#813FD6"/>
<path d="M152.959 21.2065V43.5962H147.637V42.1277C146.614 43.3353 145.136 44.0599 143.089 44.0599C138.797 44.0599 135.561 40.4128 135.561 35.6064C135.561 30.8 138.793 27.153 143.089 27.153C145.143 27.153 146.614 27.8582 147.637 29.0852V21.2114L152.959 21.2065ZM147.637 35.5968C147.637 33.5196 146.26 32.1139 144.274 32.1139C142.288 32.1139 140.912 33.5196 140.912 35.5968C140.912 37.6739 142.288 39.082 144.274 39.082C146.26 39.082 147.649 37.6763 147.649 35.5968H147.637Z" fill="#813FD6"/>
<path d="M164.341 36.3624H162.287V43.5889H156.558V21.2065H165.538C170.086 21.2065 173.611 24.4334 173.611 28.9354C173.611 30.2413 173.257 31.5229 172.586 32.644C171.915 33.765 170.953 34.6836 169.801 35.3021L174.416 43.5865H168.25L164.341 36.3624ZM162.294 31.5029H165.466C166.873 31.5367 167.865 30.5102 167.865 29.0079C167.865 27.5056 166.869 26.4839 165.466 26.4839H162.294V31.5029Z" fill="#813FD6"/>
<path d="M182.76 39.4954C183.836 39.5172 184.878 39.1166 185.662 38.3795L189.506 41.0653C187.905 43.0821 185.467 44.0433 182.619 44.0433C177.077 44.0433 173.654 40.3625 173.654 35.6309C173.654 30.8342 177.176 27.1533 182.172 27.1533C186.976 27.1533 190.435 30.7762 190.435 35.5657C190.441 36.2325 190.365 36.8976 190.21 37.5463H179.17C179.811 39.0824 181.221 39.4954 182.76 39.4954ZM185.256 33.8678C184.772 32.2037 183.526 31.6264 182.247 31.6264C180.708 31.6264 179.554 32.3921 179.102 33.8678H185.256Z" fill="#813FD6"/>
<path d="M216.675 33.8051V43.5893H211.327V34.4113C211.327 33.037 210.686 32.1723 209.343 32.1723C207.838 32.1723 207.132 33.2616 207.132 34.8581V43.5869H201.824V34.4089C201.824 33.0346 201.154 32.1699 199.805 32.1699C198.334 32.1699 197.596 33.2592 197.596 34.8557V43.5845H192.274V27.605H197.596V29.1073C198.462 27.9577 199.872 27.1582 201.919 27.1582C203.811 27.1582 205.153 27.8949 206.019 29.2088C207.016 28.0011 208.453 27.1582 210.664 27.1582C214.336 27.1534 216.675 29.6435 216.675 33.8051Z" fill="#813FD6"/>
<path d="M218.275 24.3276C217.307 21.7988 219.852 19.386 222.359 20.4294C222.725 20.5832 223.058 20.8079 223.337 21.0906C223.617 21.3733 223.837 21.7084 223.987 22.0766C225 24.6006 222.414 27.1318 219.874 26.0207C219.139 25.6884 218.564 25.0801 218.275 24.3276ZM218.483 27.6003H223.805V43.5895H218.483V27.6003Z" fill="#813FD6"/>
<path d="M232.657 32.677V37.3143C232.657 38.8166 233.844 38.9108 235.992 38.7828V43.5795C229.461 44.379 227.344 42.3719 227.344 37.435V32.677H225.491V27.5904H227.344V24.7235L232.666 23.127V27.6049H236V32.6939H232.657V32.677Z" fill="#813FD6"/>
<path d="M35.9601 8.70277C36.0583 8.70275 36.1549 8.72768 36.2407 8.77523L51.5973 17.4606C51.6627 17.4971 51.72 17.5462 51.7662 17.6051C51.8123 17.664 51.8461 17.7314 51.8659 17.8035L56.5856 34.7805C56.6058 34.8521 56.6116 34.927 56.6025 35.0008C56.5933 35.0747 56.5695 35.1459 56.5323 35.2104L47.8404 50.5498C47.804 50.6147 47.7552 50.6718 47.6966 50.7178C47.6381 50.7638 47.5711 50.7979 47.4993 50.8179L30.4953 55.5277C30.4458 55.5421 30.3945 55.5494 30.3429 55.5495C30.2447 55.5502 30.1479 55.5252 30.0623 55.477L14.7033 46.7868C14.6382 46.7503 14.5812 46.7011 14.5355 46.6422C14.4898 46.5833 14.4564 46.5159 14.4372 46.4439L9.71748 29.4669C9.69719 29.3953 9.69145 29.3204 9.70059 29.2466C9.70973 29.1727 9.73357 29.1015 9.7707 29.037L18.4553 13.7024C18.5298 13.5712 18.6533 13.4748 18.7989 13.4343L35.8029 8.7221C35.8528 8.70974 35.9039 8.70325 35.9553 8.70277M35.9553 7C35.7501 6.99966 35.5458 7.02729 35.3481 7.08212L18.3489 11.7943C18.0603 11.8744 17.7904 12.0108 17.555 12.1957C17.3195 12.3806 17.1232 12.6103 16.9773 12.8715L8.29503 28.1965C7.99822 28.7214 7.92168 29.3423 8.08215 29.9234L12.8019 46.9004C12.9603 47.4778 13.34 47.9698 13.859 48.2698L29.218 56.9455C29.7429 57.242 30.3641 57.3184 30.9453 57.158L47.9493 52.4458C48.2372 52.3663 48.5065 52.2308 48.7418 52.0472C48.9772 51.8636 49.174 51.6355 49.3209 51.3759L58.0128 36.0413C58.16 35.7818 58.2543 35.4959 58.2904 35.2C58.3265 34.9041 58.3037 34.6039 58.2233 34.3168L53.5109 17.3398C53.349 16.7598 52.9637 16.2675 52.4392 15.9703L37.0826 7.29467C36.7411 7.10126 36.3551 6.99972 35.9625 7H35.9553Z" fill="#813FD6"/>
<path opacity="0.7" d="M30.0668 23.7017H29.9217L27.4759 30.8678L27.1784 31.7373C27.084 32.012 27.084 32.3103 27.1784 32.585L29.5636 39.5676C29.6261 39.7485 29.7269 39.9138 29.8593 40.0522C29.9916 40.1906 30.1524 40.2989 30.3305 40.3695L30.7877 40.5386L33.2456 33.3434L33.5818 32.3628C33.6762 32.0914 33.6762 31.7962 33.5818 31.5247L31.2014 24.5808C31.1195 24.3393 30.9683 24.1272 30.7666 23.9708C30.5648 23.8145 30.3215 23.7209 30.0668 23.7017Z" fill="#813FD6"/>
<path opacity="0.7" d="M46.9287 23.228H41.7784C41.6341 23.2281 41.4935 23.2733 41.3763 23.3574C41.2591 23.4414 41.1713 23.5601 41.1252 23.6966L38.7351 30.7009L38.5392 31.2806C38.3941 31.6999 38.3941 32.1558 38.5392 32.5751L41.1204 40.1325C41.1656 40.2643 41.2527 40.3776 41.3685 40.4552C41.4842 40.5328 41.6222 40.5705 41.7614 40.5625L41.9913 40.5383L47.5891 24.1434C47.6234 24.0389 47.6325 23.9278 47.6156 23.8191C47.5988 23.7104 47.5564 23.6073 47.492 23.5181C47.4277 23.4288 47.3431 23.356 47.2452 23.3056C47.1473 23.2552 47.0388 23.2286 46.9287 23.228Z" fill="#813FD6"/>
<path d="M30.1276 41.0117H24.987C24.8423 41.0118 24.7013 40.9667 24.5837 40.8826C24.4661 40.7986 24.3779 40.6799 24.3314 40.5431L18.7287 24.141C18.6934 24.0372 18.6833 23.9265 18.6993 23.818C18.7153 23.7096 18.757 23.6065 18.8208 23.5173C18.8846 23.4281 18.9688 23.3553 19.0663 23.305C19.1639 23.2547 19.272 23.2283 19.3818 23.228H24.5322C24.6768 23.2279 24.8178 23.2731 24.9354 23.3571C25.053 23.4412 25.1412 23.5599 25.1877 23.6966L30.7928 40.0987C30.8285 40.2035 30.8384 40.3153 30.8218 40.4247C30.8052 40.5341 30.7625 40.6379 30.6973 40.7274C30.6321 40.8169 30.5463 40.8894 30.4471 40.9389C30.348 40.9884 30.2384 41.0133 30.1276 41.0117Z" fill="#813FD6"/>
<path d="M41.3261 41.0117H36.1758C36.0315 41.0117 35.8909 40.9664 35.7737 40.8824C35.6565 40.7983 35.5687 40.6797 35.5226 40.5431L29.9199 24.141C29.8846 24.0372 29.8746 23.9265 29.8906 23.818C29.9066 23.7096 29.9482 23.6065 30.012 23.5173C30.0759 23.4281 30.16 23.3553 30.2576 23.305C30.3552 23.2547 30.4633 23.2283 30.5731 23.228H35.7307C35.8749 23.2284 36.0153 23.2738 36.1325 23.3578C36.2496 23.4418 36.3375 23.5603 36.3838 23.6966L41.9865 40.0987C42.0209 40.2031 42.0301 40.3141 42.0132 40.4227C41.9963 40.5313 41.9539 40.6343 41.8895 40.7234C41.8251 40.8124 41.7404 40.885 41.6425 40.9351C41.5446 40.9852 41.4361 41.0115 41.3261 41.0117Z" fill="#813FD6"/>
</svg>