<?xml version="1.0" encoding="utf-8"?>
<svg xmlns="http://www.w3.org/2000/svg" width="76" height="64" viewBox="0 0 76 64" fill="none">
<path d="M30.9401 44.239H24.1738C24.133 44.2381 24.0929 44.227 24.0574 44.2067C24.0219 44.1865 23.9919 44.1577 23.9703 44.123L19.5945 37.0664L15.2187 44.123C15.1972 44.1579 15.1673 44.1867 15.1318 44.207C15.0962 44.2273 15.0561 44.2382 15.0152 44.239H8.24493C8.20053 44.2389 8.15699 44.2268 8.11893 44.204C8.08088 44.1811 8.04974 44.1484 8.02885 44.1092C8.00796 44.0701 7.99809 44.026 8.0003 43.9817C8.00251 43.9374 8.01672 43.8945 8.04141 43.8576L16.1651 31.7966L8.14113 20.1444C8.1159 20.1075 8.10123 20.0644 8.09873 20.0198C8.09623 19.9752 8.10599 19.9307 8.12695 19.8913C8.14791 19.8518 8.17927 19.8188 8.21764 19.7958C8.25601 19.7729 8.29994 19.7608 8.34466 19.761H15.1505C15.1913 19.7615 15.2313 19.7722 15.2668 19.7921C15.3023 19.812 15.3323 19.8405 15.3541 19.8749L19.5925 26.6102L23.8014 19.9156C23.8312 19.8684 23.8725 19.8296 23.9215 19.8027C23.9704 19.7759 24.0254 19.7619 24.0812 19.762H30.8413C30.8862 19.7615 30.9304 19.7733 30.9689 19.7962C31.0075 19.819 31.0391 19.8521 31.0601 19.8917C31.0811 19.9313 31.0908 19.976 31.0881 20.0207C31.0855 20.0655 31.0705 20.1086 31.0449 20.1454L23.0188 31.7966L31.1436 43.8576C31.1683 43.8945 31.1825 43.9374 31.1847 43.9817C31.1869 44.026 31.177 44.0701 31.1561 44.1092C31.1352 44.1484 31.1041 44.1811 31.066 44.204C31.028 44.2268 30.9844 44.2389 30.9401 44.239ZM43.984 8.00001C40.6737 7.99632 37.3987 8.67853 34.3655 10.0035C31.3324 11.3286 28.6071 13.2676 26.3617 15.6983C26.3469 15.7162 26.3373 15.7379 26.3342 15.7609C26.331 15.7839 26.3344 15.8074 26.3439 15.8286C26.3535 15.8498 26.3688 15.8679 26.3882 15.8808C26.4075 15.8938 26.4301 15.901 26.4533 15.9017H27.5157C27.5741 15.9014 27.6305 15.8801 27.6745 15.8417C31.6441 12.3923 36.7311 10.4989 41.9915 10.5129C53.9791 10.5129 63.6964 20.1332 63.6964 32C63.6964 43.8668 53.9791 53.4871 41.9915 53.4871C36.7312 53.4974 31.6455 51.6013 27.6775 48.1502C27.6336 48.1118 27.5772 48.0905 27.5188 48.0902H26.4533C26.4301 48.0909 26.4075 48.0981 26.3882 48.111C26.3688 48.124 26.3535 48.1421 26.3439 48.1633C26.3344 48.1845 26.331 48.2079 26.3342 48.231C26.3373 48.254 26.3469 48.2757 26.3617 48.2936C28.6064 50.7257 31.3314 52.6663 34.3645 53.9927C37.3977 55.3192 40.6731 56.0026 43.984 56C57.2447 56 68 45.2559 68 32C68 18.7441 57.2447 8.00001 43.984 8.00001ZM53.507 34.1753H35.4095C35.5682 36.921 37.9912 39.2824 41.503 39.2824C44.2079 39.2824 45.9317 38.2075 46.9779 36.5559C47.0099 36.5034 47.0606 36.4648 47.1199 36.448C47.1791 36.4313 47.2425 36.4375 47.2974 36.4654L51.8716 38.838C51.9022 38.8536 51.9291 38.8755 51.9507 38.9022C51.9722 38.929 51.9879 38.9599 51.9968 38.9931C52.0056 39.0263 52.0073 39.0609 52.0019 39.0948C51.9965 39.1287 51.984 39.1611 51.9652 39.1898C49.7875 42.4786 46.0467 44.6519 41.4674 44.6519H41.4338C34.1842 44.6519 29.2223 39.3505 29.2223 31.9959C29.2223 24.6414 34.1863 19.34 41.4338 19.34C48.6814 19.34 53.9048 25.0105 53.9048 32C53.9072 32.6389 53.8602 33.2771 53.7644 33.9088C53.741 34.0339 53.6525 34.1793 53.507 34.1793V34.1753ZM47.8215 29.2207C47.4429 27.6648 45.6163 24.7085 41.7269 24.7085C37.9912 24.7085 36.0699 27.0475 35.614 29.2207H47.8215Z" fill="#0A146E"/>
</svg>